<svg id="Capa_1" data-name="Capa 1" xmlns="http://www.w3.org/2000/svg" viewBox="0 0 322 34"><defs><style>.cls-1{fill:#fff485;}.cls-2{fill:#ec3205;}.cls-3{fill:#313638;}.cls-4{fill:none;stroke:#fff;stroke-linecap:round;stroke-width:0.41px;}</style></defs><path class="cls-1" d="M17,0H305a17,17,0,0,1,17,17h0a17,17,0,0,1-17,17H17A17,17,0,0,1,0,17H0A17,17,0,0,1,17,0Z"/><path class="cls-2" d="M126,20.37A16.6,16.6,0,0,1,128,23.53a3.57,3.57,0,0,1,.37,1.32,2.61,2.61,0,0,1-.2,1.33,1.29,1.29,0,0,1-.91.79,1.75,1.75,0,0,1-.91,0,2.27,2.27,0,0,1-.69-.36,2.34,2.34,0,0,1-.55-.73q-.27-.5-.42-.84c-.1-.23-.22-.54-.38-1l-.14-.42A10.27,10.27,0,0,0,123,21.56a2.24,2.24,0,0,0-.85-.54,1.65,1.65,0,0,1-.77-.53c.09.9.21,1.78.36,2.66a6.88,6.88,0,0,0,.25,1.09,11.07,11.07,0,0,1,.28,1.27,2.13,2.13,0,0,1-.11,1,1.46,1.46,0,0,1-.72.84,2,2,0,0,1-.75.22,1.26,1.26,0,0,1-.63-.11,1.87,1.87,0,0,1-.49-.34,2.22,2.22,0,0,1-.43-.54c-.11-.22-.22-.43-.31-.64a3.56,3.56,0,0,1-.23-.72c-.07-.26-.12-.49-.17-.67s-.09-.42-.12-.63a53.83,53.83,0,0,1-.61-12.42c0-.12,0-.23,0-.34,0-.42,0-.74,0-1a5.36,5.36,0,0,1,.16-.89,2.22,2.22,0,0,1,.33-.85,1.51,1.51,0,0,1,.6-.49,1.83,1.83,0,0,1,1-.18,2.63,2.63,0,0,1,.72.23,1,1,0,0,1,.43.47,3.65,3.65,0,0,1,.22.66,5.37,5.37,0,0,1,.14,1c0,.42,0,.81-.06,1.19s-.06.91-.1,1.57-.05,1.27-.05,1.87c.13-.68.28-1.33.46-2s.43-1.23.65-1.83A8.42,8.42,0,0,1,123,9.51a4.84,4.84,0,0,1,1-1.06A2.05,2.05,0,0,1,125.22,8a3.13,3.13,0,0,1,1.38.31,3.62,3.62,0,0,1,1.1,1,3.79,3.79,0,0,1,.65,1.32,9.44,9.44,0,0,1,.45,3.54,11,11,0,0,1-.85,3.66A5.7,5.7,0,0,1,126,20.37Zm-5.31-9.92a2,2,0,0,0-.47-1.84,1.2,1.2,0,0,0-.57-.21,1.16,1.16,0,0,0-.61.1.13.13,0,0,0-.09.18s0,0,0,.05l0,0,.06,0h0a.93.93,0,0,1,.47-.1.79.79,0,0,1,.44.16c.35.27.48.8.42,1.59,0,.1,0,.14.11.14S120.7,10.52,120.7,10.45Zm2.14.88a13.28,13.28,0,0,0-1.22,3.83,22.9,22.9,0,0,0-.42,3.78.55.55,0,0,1,.22-.18.51.51,0,0,1,.27-.06,2.16,2.16,0,0,1,.71.12,2,2,0,0,0,.59.12c.35,0,.71-.29,1.09-.88a8.32,8.32,0,0,0,.93-2.14,14.9,14.9,0,0,0,.52-2.56,5.85,5.85,0,0,0-.12-2.28,1.44,1.44,0,0,0-1-1.15C123.93,9.82,123.39,10.28,122.84,11.33Zm3.48-1.95a.08.08,0,0,0,0,0v.05a.08.08,0,0,0,0,0l.05,0a3.41,3.41,0,0,1,1.26,2,7.57,7.57,0,0,1,.16,3.07,6.83,6.83,0,0,1-1,2.83l0,0s0,0,0,.06,0,0,0,.05l0,0H127l0-.05a6.94,6.94,0,0,0,1.06-3,7.91,7.91,0,0,0-.18-3.21,3.51,3.51,0,0,0-1.37-2.11.1.1,0,0,0-.05,0h0l0,0Z"/><path class="cls-2" d="M137.12,21.77c.2,0,.29.21.27.58a8,8,0,0,1-.48,2.2,4.67,4.67,0,0,1-.9,1.52,3.71,3.71,0,0,1-1.19.85,2.66,2.66,0,0,1-1.33.23,3.55,3.55,0,0,1-1.35-.42,5.13,5.13,0,0,1-2.31-3,12,12,0,0,1-.66-4.44,15.2,15.2,0,0,1,.74-4.28,6.75,6.75,0,0,1,1.54-2.81,2.91,2.91,0,0,1,1.89-1,2.67,2.67,0,0,1,1.73.61,3.62,3.62,0,0,1,1.19,1.76,7.74,7.74,0,0,1,.21,3.82,8.49,8.49,0,0,1-1.36,3.27A4,4,0,0,1,133,22.37a5,5,0,0,0,.55,1.8,1.59,1.59,0,0,0,.86.81,1.47,1.47,0,0,0,1,0,1.86,1.86,0,0,0,.83-.71,3.46,3.46,0,0,0,.49-1.27v-.3c0-.14,0-.28,0-.42a1,1,0,0,1,.13-.33.38.38,0,0,1,.11-.11A.41.41,0,0,1,137.12,21.77Zm-5.5-8.19a2.09,2.09,0,0,1,.52-.87,2,2,0,0,1,.89-.5,1.5,1.5,0,0,1,.84-.09,1.74,1.74,0,0,1,.78.33.08.08,0,0,0,0,0h.11s0,0,0,0a.11.11,0,0,0,0-.17,1.84,1.84,0,0,0-.89-.42,1.92,1.92,0,0,0-1,.09,2.2,2.2,0,0,0-1.56,1.56c0,.09,0,.15.08.17h0a.09.09,0,0,0,.07,0,.16.16,0,0,0,0-.07Zm1.1-3.6a.43.43,0,0,1-.26-.09.47.47,0,0,1-.16-.21.66.66,0,0,1-.11-.36V9.18a.49.49,0,0,1,.11-.28L134.41,6a.66.66,0,0,1,.24-.23.57.57,0,0,1,.32-.09.61.61,0,0,1,.37.1.64.64,0,0,1,.26.28,1.14,1.14,0,0,1,.16.57v.25a.91.91,0,0,1-.23.47l-2.48,2.44a.33.33,0,0,1-.15.11A.39.39,0,0,1,132.72,10Zm.53,5.94a14.63,14.63,0,0,0-.5,4.84c.07,0,.2-.05.39-.09a4.21,4.21,0,0,0,.48-.12,2.07,2.07,0,0,0,.34-.15,4.47,4.47,0,0,0,1.8-2.79,5.36,5.36,0,0,0,0-3.45,2.15,2.15,0,0,0-.38-.61,1.5,1.5,0,0,0-.58-.38.63.63,0,0,0-.36,0,.58.58,0,0,0-.28.21,6.48,6.48,0,0,0-.92,2.53Z"/><path class="cls-2" d="M151,16a2.9,2.9,0,0,1,1.56,1.34,6.51,6.51,0,0,1,.77,2.39,19.49,19.49,0,0,1,.16,2.64c0,.84-.06,1.68-.15,2.51l-.15.89a6.18,6.18,0,0,1-.24.84,2.15,2.15,0,0,1-.39.75,1.83,1.83,0,0,1-.64.42,1.59,1.59,0,0,1-.94.05,1.75,1.75,0,0,1-.93-.55,1.62,1.62,0,0,1-.42-1,4,4,0,0,1,.1-1.19,7.5,7.5,0,0,0,.15-.93,24.2,24.2,0,0,0,.12-4.17,4.09,4.09,0,0,0-.42-1.9.8.8,0,0,0-.21-.15,1,1,0,0,0-.3-.11.77.77,0,0,0-.37,0,.85.85,0,0,0-.4.25,3,3,0,0,0-.4.53,31.74,31.74,0,0,1-.24,4.57l0,.22c0,.42-.07.71-.11.94a7.17,7.17,0,0,1-.24.91,3,3,0,0,1-.39.85,1.79,1.79,0,0,1-.67.48,1.74,1.74,0,0,1-1,.08,2,2,0,0,1-1-.53,1.65,1.65,0,0,1-.4-.84,8,8,0,0,1,0-1.38c0-.57.1-1.17.18-1.78s.15-1.41.19-2.39a28.25,28.25,0,0,0,0-2.91v-.68c0-.39,0-.69,0-.92s0-.5-.1-.81a1.52,1.52,0,0,0-.25-.71.55.55,0,0,0-.2-.17.51.51,0,0,0-.25-.06c-.48,0-.86.49-1.13,1.47a19.25,19.25,0,0,0-.57,3.7,43.16,43.16,0,0,0,.46,5c.06.34.13.69.22,1a11.78,11.78,0,0,1,.25,1.18,2,2,0,0,1-.14.94,1.56,1.56,0,0,1-.71.85,2.31,2.31,0,0,1-.68.2,1.07,1.07,0,0,1-.56-.06,2.12,2.12,0,0,1-.47-.25,1.83,1.83,0,0,1-.4-.43,4.07,4.07,0,0,1-.31-.53,4.6,4.6,0,0,1-.25-.61q-.1-.33-.18-.6a5,5,0,0,1-.12-.58,43.18,43.18,0,0,1-.55-10.53c0-.34,0-.57,0-.67s0-.31.07-.63a2.71,2.71,0,0,1,.13-.69l.24-.55a1,1,0,0,1,.37-.48,3.32,3.32,0,0,1,.54-.25,2,2,0,0,1,.73-.08,1.78,1.78,0,0,1,1.07.54,1.89,1.89,0,0,1,.36,1.15c0,.51,0,1.15,0,1.94a5.41,5.41,0,0,1,.27-.77,3.22,3.22,0,0,1,2.06-2c1.05-.26,1.92.23,2.62,1.48a9.93,9.93,0,0,1,1.07,4.07A2.47,2.47,0,0,1,151,16Zm-9.72-2.61a2.14,2.14,0,0,0-.5-1.85,1.31,1.31,0,0,0-.57-.21,1.17,1.17,0,0,0-.61.11.12.12,0,0,0-.09.17.08.08,0,0,0,0,0s0,0,0,0l.06,0h.05a.89.89,0,0,1,.48-.1,1,1,0,0,1,.46.15,1.82,1.82,0,0,1,.38,1.6c0,.09,0,.14.11.14h.09l0,0,0,0a.11.11,0,0,0,0-.05Zm5.88,5.68c.1,0,.14,0,.14-.11a17.6,17.6,0,0,0-.14-2.29,11.72,11.72,0,0,0-.42-2,4.48,4.48,0,0,0-.81-1.6,1.94,1.94,0,0,0-1.21-.74h-.06l-.05,0,0,0a.14.14,0,0,0,0,.06v.05a.14.14,0,0,0,0,.06l0,0h.05c.74.11,1.32.74,1.75,1.88a12.62,12.62,0,0,1,.62,4.52c0,.08.06.11.15.11Z"/><path class="cls-2" d="M159.45,12.15A4.43,4.43,0,0,1,162,14.79a11.1,11.1,0,0,1,.85,4.83,13.63,13.63,0,0,1-1.1,5.15,6.45,6.45,0,0,1-1.27,2.06,3,3,0,0,1-1.52.93,2.77,2.77,0,0,1-1.56-.12A3.44,3.44,0,0,1,156,26.51a7.24,7.24,0,0,1-1.1-2.07,14.49,14.49,0,0,1-.71-3.51,15.58,15.58,0,0,1,.09-3.61,11.74,11.74,0,0,1,.85-3.08,4,4,0,0,1,1.76-2,3.1,3.1,0,0,1,1.26-.33A3,3,0,0,1,159.45,12.15Zm-3.27,2.34a2.2,2.2,0,0,1,.46-1,2.25,2.25,0,0,1,.88-.61,2,2,0,0,1,1-.23,2,2,0,0,1,1,.29l.05,0h.06l0,0,0-.05a.08.08,0,0,0,0-.05,0,0,0,0,0,0,0,.08.08,0,0,0,0-.05l0,0a2.29,2.29,0,0,0-2.23-.06,2.83,2.83,0,0,0-1,.73,2.66,2.66,0,0,0-.53,1,.14.14,0,0,0,0,.11.15.15,0,0,0,.09.06h0l.09,0A.22.22,0,0,0,156.18,14.49Zm3.07,11.31c.33.2.71.12,1.13-.26a5,5,0,0,0,1.16-2A12.59,12.59,0,0,0,162,16.8a6,6,0,0,0-1.35-2.87.78.78,0,0,0-.36-.19.81.81,0,0,0-.41,0,1.38,1.38,0,0,0-.88.34,4.59,4.59,0,0,0-.75,1.79,15.38,15.38,0,0,0-.47,3.38,13.12,13.12,0,0,0,.48,4.14c.13.39.3.85.54,1.43A3.3,3.3,0,0,0,159.25,25.8Z"/><path class="cls-2" d="M170.67,25.29c.33.18.34.5,0,.94a3.58,3.58,0,0,1-1.43,1.27,3.52,3.52,0,0,1-1.89.32,2.92,2.92,0,0,1-1.24-.21,3,3,0,0,1-1.06-.7,4.89,4.89,0,0,1-.92-2.26,20.75,20.75,0,0,1-.33-3.69c0-1.38,0-2.54,0-3.49s.08-1.88.16-2.81a5.67,5.67,0,0,1,0-.58c0-.32,0-.53,0-.66s0-.34.08-.64a2.33,2.33,0,0,1,.17-.64q.09-.21.24-.51a1,1,0,0,1,.38-.42,2,2,0,0,1,.52-.23,1.9,1.9,0,0,1,.71-.08,1.78,1.78,0,0,1,.63.2,1.64,1.64,0,0,1,.5.41,2.31,2.31,0,0,1,.32,1.33c0,.58-.06,1.31-.13,2.2s-.14,2-.19,3.2a36.66,36.66,0,0,0,.11,4.32q0,.14.3,2a1.07,1.07,0,0,0,.2.51,1.1,1.1,0,0,0,.43.34,2.19,2.19,0,0,0,1.46.32l.21-.13.19-.15a.41.41,0,0,1,.19-.11.25.25,0,0,1,.24,0Zm-3.61-11.87a2,2,0,0,0-.49-1.84,1.18,1.18,0,0,0-.56-.22,1.13,1.13,0,0,0-.6.11.12.12,0,0,0-.09.17.14.14,0,0,0,0,.06l0,0,.05,0h.06a.82.82,0,0,1,.46-.1.79.79,0,0,1,.44.16,1.75,1.75,0,0,1,.43,1.59c0,.09,0,.14.11.14S167.06,13.49,167.06,13.42Z"/><path class="cls-2" d="M176.11,12.15a4.42,4.42,0,0,1,2.6,2.64,11.26,11.26,0,0,1,.87,4.83,13.63,13.63,0,0,1-1.1,5.15,6.45,6.45,0,0,1-1.27,2.06,3.08,3.08,0,0,1-1.53.93,2.73,2.73,0,0,1-1.55-.12,3.38,3.38,0,0,1-1.43-1.13,7.24,7.24,0,0,1-1.1-2.07,15,15,0,0,1-.72-3.51,15.58,15.58,0,0,1,.1-3.61,11.78,11.78,0,0,1,.87-3.08,3.94,3.94,0,0,1,1.72-2,3.07,3.07,0,0,1,1.25-.34A3.32,3.32,0,0,1,176.11,12.15Zm-3.27,2.34a2.11,2.11,0,0,1,.47-1,2.18,2.18,0,0,1,.88-.61,2,2,0,0,1,1-.23,2,2,0,0,1,1,.29l.05,0h.05l0,0,0-.05a.08.08,0,0,0,0-.05v0a.08.08,0,0,0,0-.05s0,0,0,0a2.29,2.29,0,0,0-2.23-.06,2.74,2.74,0,0,0-1,.73,2.68,2.68,0,0,0-.54,1,.2.2,0,0,0,0,.11.16.16,0,0,0,.08.06h0a.12.12,0,0,0,.09,0A.14.14,0,0,0,172.84,14.49Zm3.08,11.31c.33.2.71.12,1.13-.26a4.94,4.94,0,0,0,1.15-2,11.82,11.82,0,0,0,.66-3.23,12,12,0,0,0-.25-3.53,6,6,0,0,0-1.34-2.87.84.84,0,0,0-.36-.19.82.82,0,0,0-.41,0,1.34,1.34,0,0,0-.88.34,4.46,4.46,0,0,0-.76,1.79,16.68,16.68,0,0,0-.47,3.38,13.53,13.53,0,0,0,.49,4.15c.12.38.3.84.53,1.42A3.32,3.32,0,0,0,175.92,25.8Z"/><path class="cls-2" d="M87.39,7a4.51,4.51,0,0,1,1.15,1.67,9,9,0,0,1,.67,2.44,20.63,20.63,0,0,1,.18,2.94,19.75,19.75,0,0,1-.29,3.16,29.33,29.33,0,0,1-.73,3.08A12.11,12.11,0,0,1,87.2,23a10.68,10.68,0,0,1-1.6,2.08,4.06,4.06,0,0,1-2,1.14,4.64,4.64,0,0,1-2.34-.09l-.14,0a1.79,1.79,0,0,1-.75.79,2.47,2.47,0,0,1-.79.23A1.29,1.29,0,0,1,79,27a2,2,0,0,1-.51-.36,2.22,2.22,0,0,1-.45-.56c-.12-.23-.23-.46-.33-.68a5.2,5.2,0,0,1-.25-.76c-.07-.28-.12-.52-.17-.71a5,5,0,0,1-.13-.67,56.77,56.77,0,0,1-.64-13.15c0-.12,0-.24,0-.35,0-.45,0-.79.06-1a7.85,7.85,0,0,1,.16-1,2.55,2.55,0,0,1,.35-.89,1.61,1.61,0,0,1,.64-.52,2,2,0,0,1,1-.2,2.61,2.61,0,0,1,.77.27,1.24,1.24,0,0,1,.48.51,2.18,2.18,0,0,1,.24.69,6.15,6.15,0,0,1,0,1c0,.45,0,.9-.06,1.31s-.06,1-.1,1.72,0,1.4,0,2.07A12.7,12.7,0,0,1,83,7.61a3.73,3.73,0,0,1,2.11-1.2,3.14,3.14,0,0,1,1.22,0A2.86,2.86,0,0,1,87.39,7Zm-8,.3,0,0,0,0V7.16l0,0a1,1,0,0,0-.47-.38,1,1,0,0,0-.6-.07,1.19,1.19,0,0,0-.6.25,1.1,1.1,0,0,0-.36.54.21.21,0,0,0,0,.11.27.27,0,0,0,.08.07h.06a.09.09,0,0,0,.07,0s0,0,.05-.06a.86.86,0,0,1,.27-.4A.78.78,0,0,1,78.35,7a.67.67,0,0,1,.44,0,.74.74,0,0,1,.34.29l.05,0h.11Zm2.09,16.86c.9-.1,1.67-.92,2.33-2.47a21.4,21.4,0,0,0,1.39-5.32,33.4,33.4,0,0,0,.34-5.74,4.32,4.32,0,0,0-.2-1.12,2.09,2.09,0,0,0-.61-.89c-.28-.25-.65-.23-1.09,0a4.81,4.81,0,0,0-1.64,2,16.18,16.18,0,0,0-1.13,3,21.69,21.69,0,0,0-.55,2.78,6.57,6.57,0,0,0-.12.89,48,48,0,0,0,.58,5.09,7.43,7.43,0,0,0,.21,1c.11.45.19.71.23.85A1.1,1.1,0,0,0,81.43,24.16Zm7-8.67a.13.13,0,0,0,.14-.14,17.13,17.13,0,0,0-.33-5.56c-.38-1.36-1-2.15-1.85-2.39h-.06l-.06,0,0,0,0,.06a.13.13,0,0,0,.1.18c.78.2,1.34,1,1.69,2.29a17.48,17.48,0,0,1,.31,5.35.06.06,0,0,0,0,.06s0,0,0,0l0,0Z"/><path class="cls-2" d="M95.7,10.72a4.67,4.67,0,0,1,2.75,2.79,12.08,12.08,0,0,1,.89,5.11,14.36,14.36,0,0,1-1.16,5.45,6.65,6.65,0,0,1-1.35,2.18,3.16,3.16,0,0,1-1.61,1,2.91,2.91,0,0,1-1.65-.13,3.59,3.59,0,0,1-1.51-1.19,7.37,7.37,0,0,1-1.16-2.2A15.58,15.58,0,0,1,90.14,20a15.75,15.75,0,0,1,.1-3.82,12.71,12.71,0,0,1,.89-3.26A4.26,4.26,0,0,1,93,10.85a3.29,3.29,0,0,1,1.34-.35A3.33,3.33,0,0,1,95.7,10.72Zm-3.47,2.47a2.29,2.29,0,0,1,.5-1,2.34,2.34,0,0,1,.93-.65,2.13,2.13,0,0,1,1-.24,2.16,2.16,0,0,1,1.05.3l0,0h0l0,0a.05.05,0,0,0,0-.05s0,0,0,0v-.06a.05.05,0,0,0,0-.05.08.08,0,0,0,0,0A2.44,2.44,0,0,0,94.73,11a2.48,2.48,0,0,0-1.19.28,2.84,2.84,0,0,0-1.6,1.86.14.14,0,0,0,0,.11.23.23,0,0,0,.1.07h0a.14.14,0,0,0,.09,0A.11.11,0,0,0,92.23,13.19Zm3.26,12c.35.21.75.12,1.2-.28a5.32,5.32,0,0,0,1.22-2.09,12.84,12.84,0,0,0,.7-3.42,13.07,13.07,0,0,0-.27-3.74,6.28,6.28,0,0,0-1.42-3,.82.82,0,0,0-.38-.2.9.9,0,0,0-.43,0,1.48,1.48,0,0,0-.94.37,5,5,0,0,0-.8,1.89,16.6,16.6,0,0,0-.49,3.58,14.16,14.16,0,0,0,.51,4.39c.13.41.32.89.57,1.51A3.25,3.25,0,0,0,95.49,25.17Z"/><path class="cls-2" d="M104.6,12.29a3.47,3.47,0,0,1,2.33-2.07c1.2-.25,2.2.35,3,1.79q2,3.49,1.19,11.85c0,.07,0,.2,0,.37,0,.39-.07.69-.09.9a8.7,8.7,0,0,1-.15.89,3.64,3.64,0,0,1-.29.9,4.9,4.9,0,0,1-.45.67,1.29,1.29,0,0,1-.66.44,1.64,1.64,0,0,1-.93,0,1.69,1.69,0,0,1-1.08-.68,1.75,1.75,0,0,1-.38-1.2s0-.32.06-.9.07-1.1.1-1.58.06-1.2.1-2.16.06-1.79.06-2.59,0-1.74,0-2.9c-.06-2.79-.54-4.07-1.43-3.81s-1.64,2.16-1.89,5.67a46.29,46.29,0,0,0,.45,5,8.32,8.32,0,0,0,.23,1.08,10.5,10.5,0,0,1,.26,1.24,2.12,2.12,0,0,1-.14,1,1.68,1.68,0,0,1-.76.9,2.07,2.07,0,0,1-.81.21,1.36,1.36,0,0,1-.66-.11,1.6,1.6,0,0,1-.52-.41,2.59,2.59,0,0,1-.42-.58,4.94,4.94,0,0,1-.33-.7c-.09-.26-.17-.51-.23-.72s-.12-.45-.17-.72a45.71,45.71,0,0,1-.59-11.14,5.37,5.37,0,0,1,.05-.71c0-.11,0-.33.07-.67a3,3,0,0,1,.15-.73l.24-.59a1.17,1.17,0,0,1,.4-.51,2.9,2.9,0,0,1,.57-.25,2,2,0,0,1,.77-.09,1.77,1.77,0,0,1,1.18.61,2.43,2.43,0,0,1,.35,1.34c0,.58,0,1.34-.08,2.24A11.51,11.51,0,0,1,104.6,12.29Zm-1-.23a2.14,2.14,0,0,0-.49-2,1.23,1.23,0,0,0-.61-.23,1.28,1.28,0,0,0-.64.11c-.1,0-.13.1-.1.19a.08.08,0,0,0,0,.05.1.1,0,0,0,0,0l0,0h.06a.91.91,0,0,1,1,.06,1.88,1.88,0,0,1,.44,1.69c0,.09,0,.14.12.14S103.58,12.13,103.58,12.06Zm6.74,6c.09,0,.13,0,.13-.12a15.21,15.21,0,0,0-.11-2.43,13.37,13.37,0,0,0-.45-2.16,4.81,4.81,0,0,0-.85-1.69,2.14,2.14,0,0,0-1.32-.79c-.07,0-.12,0-.14.12a.13.13,0,0,0,0,.06.14.14,0,0,0,0,.06l0,0,0,0c.78.11,1.39.77,1.84,2A14.33,14.33,0,0,1,110.2,18C110.22,18,110.24,18.08,110.32,18.08Z"/><path class="cls-3" d="M239.81,17.7c3.15,0,5.19-2.31,5.85-2.92-.85,4.5-5.07,13.51-15.18,13.51s-14-5.57-14.69-8.27c-.89,2.59-4.43,8.27-14.86,8.27s-14.54-9.12-15.3-13.68c.46,1,2.28,3.09,5.86,3.09,4.47,0,8.94-8.16,15.46-8.16,4.06,0,7.58,3.16,8.84,4.74a10.58,10.58,0,0,1,8.67-4.74C230.25,9.54,234.89,17.7,239.81,17.7Z"/><path class="cls-4" d="M221.69,11a4.87,4.87,0,0,1,3.86-.52,9.41,9.41,0,0,1,4.52,2.43"/><path class="cls-4" d="M188.07,19.26a14.65,14.65,0,0,0,8.26,7.55"/></svg>